<?xml version="1.0" encoding="UTF-8"?>
<svg id="Layer_1" xmlns="http://www.w3.org/2000/svg" version="1.1" viewBox="0 0 15 15">
  <!-- Generator: Adobe Illustrator 29.0.1, SVG Export Plug-In . SVG Version: 2.1.0 Build 192)  -->
  <defs>
    <style>
      .st0 {
        fill: #fff;
      }

      .st1 {
        fill: none;
        stroke: #fff;
        stroke-linecap: round;
        stroke-miterlimit: 10;
      }

      .st2 {
        fill-rule: evenodd;
      }
    </style>
  </defs>
  <path class="st2" d="M22.8,3.5h6.6c.6,0,1,.4,1,1v6c0,.6-.4,1-1,1h-6.6V3.5ZM21.8,2.5h7.6c1.1,0,2,.9,2,2v6c0,1.1-.9,2-2,2h-10c-1.1,0-2-.9-2-2v-6c0-1.1.9-2,2-2h2.4ZM21.8,11.5h-2.4c-.6,0-1-.4-1-1v-6c0-.6.4-1,1-1h2.4v8Z"/>
  <path class="st1" d="M13.1,7V1.2h0c0-.3-.3-.5-.6-.5H2.2c-.3,0-.5.3-.5.6v7.2c.2,2.6,2.4,4.3,4.5,5.5.2,0,.4.2.5.3,0,0,.2.1.3.2.2,0,.4,0,.4-.3h0V.7"/>
  <path class="st0" d="M13.2,10.1h-.3v-.8c0-1-.8-1.8-1.8-1.8s-1.8.8-1.8,1.8v.8h-.3c-.1,0-.2,0-.2.2v3.6c0,.1,0,.2.2.2h4.3c.1,0,.2,0,.2-.2v-3.6c0-.1,0-.2-.2-.2h0ZM12,10.1h-1.9v-.8c0-.5.4-1,1-1s1,.4,1,1v.8h0Z"/>
</svg>