<?xml version="1.0" encoding="UTF-8"?>
<svg id="Layer_1" xmlns="http://www.w3.org/2000/svg" version="1.1" viewBox="0 0 15 15">
  <!-- Generator: Adobe Illustrator 29.0.1, SVG Export Plug-In . SVG Version: 2.1.0 Build 192)  -->
  <defs>
    <style>
      .st0 {
        fill: #fff;
      }
    </style>
  </defs>
  <path class="st0" d="M7.5,1.3c2.3,1.4,3.4,1.6,5.4,1.6-.2,5-2,8.5-5.4,10.7C4.1,11.5,2.3,8,2.1,3c2,0,3.2-.2,5.4-1.6M7.5.1C4.7,2,3.8,2,1.1,2c0,6.1,2.1,10.4,6.4,12.9,4.3-2.5,6.4-6.7,6.4-12.9-2.8,0-3.7,0-6.4-1.8h0Z"/>
  <path class="st0" d="M8.9,4.7c-.5,0-1,.2-1.4.5v-.5h-.9v2.8c0,.8-.1.9-.9.9s-.9-.1-.9-.9v-2.8h-.9,0v2.8c0,1.3.6,1.9,1.9,1.9s1.3-.2,1.6-.7c.4.4,1,.7,1.6.7,1.3,0,2.3-1,2.3-2.3,0-1.3-1-2.3-2.3-2.3ZM8.9,8.4c-.8,0-1.4-.6-1.4-1.4,0-.8.6-1.4,1.4-1.4h0c.8,0,1.4.6,1.4,1.4,0,.8-.6,1.4-1.4,1.4Z"/>
</svg>